Patient4_TMGait_0pt4_01_left_19_EMG.mot
version=1
nRows=20
nColumns=33
inDegrees=no
endheader
time	1LAddLong	2LGlutMax	3LGlutMed	4LIliopsoas	5LSemiMemb	6LBicFemLong	7LRecFem	8LVastMed	9LVastLat	10LGasMed	11LTibAnt	12lTibPost	13LPeroneusLong	14LSol	15LExtDigLong	16LFlexDigLong	17RAddLong	18RGlutMax	19RGlutMed	20RIliopsoas	21RSemiMemb	22RBicFemLong	23RRecFem	24RVastMed	25RVastLat	26RGasMed	27RTibAnt	28RTibPost	29RPeroneusLong	30RSol	31RExtDigLong	32RFlexDigLong
24.037	0.00061	-0.079956	0.027313	0.001373	0.012054	-0.14435	0.032501	0.003357	0.083618	-0.024109	0.031433	0	-0.043793	-0.003967	-0.056152	0.00824	-0.034943	-0.25513	0.055695	-0.023956	-0.18753	0.15976	0.2385	0.11292	0.010223	-0.008545	0.56137	-0.001068	-0.48874	0.001984	-0.002441	-0.006714
24.038	-0.004272	-0.064392	0.023651	-0.012665	-0.014954	-0.033264	0.045166	0.001984	0.079803	-0.01297	0.014954	0.001373	-0.024567	-0.01709	0.052795	0.003967	-0.014343	-0.29541	-0.075531	0.005951	-0.009308	0.041504	0.45761	0.3244	0.028839	-0.008698	0.383	-0.00412	-0.55969	0.04303	-0.001831	-0.015717
24.039	0.000763	-0.074463	-0.005341	0.007172	-0.043488	-0.003815	0.024567	0.000458	0.091858	-0.037231	0.029449	0.000305	-0.005646	0.015259	0.84488	0.005035	-0.003815	-0.26932	0.043488	-0.00061	0.036469	-0.009613	0.48355	0.47867	0.065155	-0.007477	-0.27359	-0.016327	0.13428	0.14801	0.000153	-0.013885
24.04	-0.00351	-0.073395	-0.0177	-0.013733	-0.051422	0.017853	0.035858	0.008087	0.09613	-0.05661	0.077209	0.003052	0.054016	0.014343	-0.33173	0.00885	-0.003204	-0.17685	0.14893	0.009918	-0.014954	0.018005	0.42099	0.39398	0.000763	-0.00946	-0.2504	-0.007782	0.20386	0.18051	0.001984	-0.013885
24.041	0.00473	-0.034332	0.002594	-0.008698	-0.09201	0.014191	-0.003052	0.009155	0.11475	-0.037689	0.082245	-0.00412	0.014648	0.011597	-0.35812	0.003357	0.001373	-0.16388	0.052948	0.038452	0.009766	0.063782	0.6575	0.29984	-0.043945	-0.001221	0.046692	-0.00473	-0.07782	0.19699	-0.000763	-0.001984
24.042	-0.009766	-0.06485	0.011597	0.007172	-0.02182	-0.001678	0.026855	0.005493	0.1152	-0.011139	0.10635	-0.005188	-0.036316	0.001678	-0.17654	0.007629	0.011292	-0.095673	-0.1297	0.018921	0.00946	0.03006	0.47562	0.1683	-0.22217	-0.00473	0.056915	-0.003204	-0.23148	0.082855	0.00061	-0.003052
24.043	-0.000458	-0.06134	-0.007324	0.005035	0.028992	0.009766	0.019531	0.005951	0.11841	-0.014954	-0.000916	0.002747	0.006714	0.01709	-0.14069	0.000153	-0.006866	-0.090637	-0.13046	-0.018921	0.000916	0.071564	-0.058136	-0.048065	-0.1622	-0.019531	0.029144	-0.003357	0.3421	-0.054932	0.001831	-0.010529
24.044	0.008545	-0.058441	-0.003662	-0.003204	0.01236	0.005646	0.023346	0.003357	0.121	-0.013733	-0.08194	0.000305	0.002136	-0.00412	-0.037994	-0.002136	-0.037231	-0.034485	0.046539	-0.016327	0.009308	0.086517	-0.64545	-0.31113	-0.048218	-0.013428	0.072937	-0.001068	0.52277	-0.024567	0.000763	-0.011902
24.045	0.003357	-0.065613	-0.025024	-0.012665	0.000916	-0.012512	0.003204	0.003204	0.11704	-0.025787	-0.13351	0.006561	-0.009613	0.030975	0.16357	-0.00412	-0.045319	0.035553	-0.091705	-0.026855	-0.005798	0.040436	-1.268	-0.75424	0.18875	-0.018311	0.33783	-0.000916	0.61386	-0.017548	-0.000458	-0.011444
24.046	-0.004272	-0.033264	-0.041962	0.002289	-0.000153	-0.000305	0.019684	0.007629	0.11444	-0.018311	-0.14832	0.00473	-0.0383	0.019989	0.29633	-0.008698	-0.019379	0.040894	-0.3038	0.011444	-0.015717	0.007629	-0.94376	-0.61356	0.25085	-0.015259	0.62347	-0.002899	0.80505	-0.078888	-0.005798	-0.011902
24.047	0.006104	-0.025787	-0.044098	0.002594	-0.037384	-0.007019	0.02594	0.006561	0.12039	-0.035553	-0.015869	0.004272	0.049591	0.040894	0.31036	-0.017853	0.007935	0.000153	0.016785	0.039673	-0.011444	-0.003662	-0.28946	-0.019073	0.27069	-0.003967	0.77377	-0.002747	0.81345	-0.22263	0.005341	-0.005035
24.048	0.007935	-0.018158	-0.030823	0.016174	-0.034637	-0.024567	0.015869	-0.000763	0.12436	-0.050507	0.17441	0.001678	0.026398	0.061798	0.023804	-0.000916	0.023193	0.005188	0.46341	0.00885	-0.032196	-0.027161	-0.041046	-0.035248	0.22461	0.004272	0.44861	-0.005035	-0.28976	-0.25345	0.000153	-0.008698
24.049	0.007782	-0.031128	-0.01236	0.009308	-0.021057	-0.041199	0.02655	0.007782	0.13077	-0.049133	0.43045	0.00824	-0.05249	0.084534	0.042725	0.005646	0.005493	0.002594	0.38254	-0.025787	-0.033569	-0.003357	-0.21301	-0.052032	0.13229	0	-0.53986	-0.007019	-0.30121	-0.10178	0.002136	-0.010376
24.05	0.006256	-0.034943	0.005493	0.002594	-0.045929	-0.064392	0.014648	0.00885	0.12512	-0.037231	0.24277	0.005035	-0.048065	0.083771	-0.1918	0.006104	0.016785	-0.072937	0.000305	-0.016785	-0.027771	-0.002136	-0.21454	-0.027924	0.10269	-0.008545	-0.7164	-0.003204	-0.90149	-0.13062	0.000153	-0.007019
24.051	0.014191	-0.04425	0.011292	0	-0.057068	-0.057373	-0.013428	0.000305	0.12985	-0.045319	-0.16892	-0.00351	0.10712	0.074463	-0.023193	0.002594	0.017853	-0.052338	0.18967	0.026093	-0.020905	0.006409	-0.086975	-0.022125	0.17425	0.003662	-0.78659	-0.003357	-0.96558	-0.23926	0.002747	-0.006409
24.052	0.027924	-0.036316	0.014038	-0.004272	-0.002747	-0.023804	0.010376	-0.001678	0.12329	-0.026703	-0.2121	0.017395	0.034943	0.066986	-0.17548	-0.011444	0.00946	-0.036316	0.51239	0.011292	-0.025024	0.016174	0.009003	-0.024261	0.3746	0.006866	-0.50034	-0.007477	0.11704	-0.24963	0.004272	-0.003815
24.053	0.018616	-0.039063	0.016479	-0.00351	-0.032501	0.025482	0.020599	-0.001831	0.12741	-0.027924	-0.16617	0.002747	0.012512	0.057068	-0.1004	-0.013428	0.010834	-0.050812	0.33188	0.065155	-0.018158	0.021515	0.08194	-0.064392	0.36301	0.007477	-0.24078	-0.003357	1.51	-0.18921	0.00351	-0.007477
24.054	0.00885	-0.04776	0.001526	0.000305	-0.058136	0.054321	0.020905	0.002441	0.11963	-0.053406	-0.066071	-0.014191	0.013275	0.033569	-0.40329	-0.019226	0.003662	-0.020599	0.079498	0.048981	-0.021362	0.042267	0.032043	-0.039063	0.33478	-0.011902	0.46692	-0.005646	-1.0024	0.12344	0.003662	-0.0177
24.055	0.016479	-0.053864	-0.021057	0.002747	-0.054321	0.042267	0.00824	0.005188	0.11719	-0.068817	0.044556	-0.010986	0.034943	-0.084991	-0.33112	-0.023499	0.001831	0.011139	-0.058746	0.095062	-0.019684	0.040894	-0.070343	0.017548	0.20218	-0.009155	0.37186	-0.003967	-0.24231	0.15167	-0.001831	-0.016022
24.056	-0.00946	-0.036163	-0.042114	0.007935	-0.036316	0.040436	0.020752	0.001984	0.12482	-0.029755	0.016327	0.004425	0.019073	-0.10223	-0.34866	-0.004272	0.000458	0.048828	0.35675	0.058289	-0.016785	0.036774	-0.24124	-0.067902	0.061493	0.004425	0.093231	-0.002899	1.5668	-0.072174	0.002441	-0.005188
